<svg width="70" height="17" viewBox="0 0 70 17" fill="none" xmlns="http://www.w3.org/2000/svg">
<path fill-rule="evenodd" clip-rule="evenodd" d="M56.4652 5.5915C56.7302 6.04882 56.8169 6.56914 56.8456 7.15408L56.8832 7.93374V13.3856L56.9217 14.1661C56.9986 15.4407 57.9386 16.3832 59.223 16.4633L59.9994 16.5018V7.93374L60.0378 7.15408C60.0697 6.57568 60.1556 6.04555 60.4248 5.58495C60.6991 5.11252 61.0928 4.72056 61.5665 4.44842C62.0401 4.17628 62.577 4.03355 63.1233 4.03454C63.6696 4.03554 64.206 4.18023 64.6786 4.45409C65.1513 4.72795 65.5436 5.12134 65.8161 5.59477C66.0812 6.05209 66.1638 6.58223 66.1957 7.15408L66.2342 7.93129V13.3856L66.2726 14.1661C66.3528 15.4473 67.2855 16.3897 68.574 16.4633L69.3504 16.5018V7.15408C69.3504 5.50115 68.6939 3.91588 67.5253 2.74686C66.3568 1.57783 64.7718 0.920746 63.1188 0.920095C62.2341 0.919162 61.3594 1.10704 60.5532 1.47117C59.7469 1.8353 59.0276 2.3673 58.4433 3.03163C57.8588 2.36756 57.1395 1.83569 56.3333 1.47145C55.5271 1.10721 54.6525 0.918973 53.7679 0.919277C52.4736 0.919277 51.2726 1.31197 50.2778 1.99018C49.6708 1.31279 48.3127 0.919277 47.5331 0.919277V16.5018L48.3127 16.4633C49.6168 16.3774 50.5592 15.4603 50.61 14.1661L50.6517 13.3856V7.93374L50.6901 7.15408C50.7229 6.56586 50.8047 6.04882 51.0705 5.58822C51.345 5.11609 51.7386 4.72422 52.2119 4.45175C52.6852 4.17928 53.2217 4.03573 53.7679 4.03545C54.3144 4.03557 54.8513 4.1794 55.3247 4.45251C55.7982 4.72562 56.1915 5.11842 56.4652 5.5915ZM3.12203 16.4642L3.90169 16.5018H15.5884L15.5499 15.7246C15.4444 14.4434 14.5371 13.5075 13.2519 13.4241L12.4722 13.3856H5.46101L14.8087 4.03464L14.7703 3.25825C14.7097 1.964 13.764 1.0289 12.4722 0.957728L11.6925 0.92255L0.00585938 0.919277L0.0443105 1.69894C0.146574 2.96782 1.06695 3.92337 2.34156 3.997L3.12203 4.03545H10.1332L0.785517 13.3864L0.823968 14.1661C0.90087 15.4505 1.82779 16.3807 3.12203 16.4633V16.4642ZM44.4741 3.20016C45.1978 3.92363 45.7718 4.78256 46.1634 5.7279C46.555 6.67324 46.7566 7.68647 46.7566 8.70972C46.7566 9.73297 46.555 10.7462 46.1634 11.6915C45.7718 12.6369 45.1978 13.4958 44.4741 14.2193C43.0122 15.68 41.0301 16.5006 38.9634 16.5006C36.8967 16.5006 34.9145 15.68 33.4526 14.2193C30.41 11.1767 30.41 6.24271 33.4526 3.20016C34.1755 2.47694 35.0339 1.90319 35.9786 1.5117C36.9233 1.1202 37.9358 0.918619 38.9585 0.918459C39.9827 0.917748 40.9971 1.11898 41.9435 1.51063C42.89 1.90229 43.7499 2.47669 44.4741 3.20098V3.20016ZM42.2693 5.4066C43.1457 6.28363 43.638 7.47274 43.638 8.71258C43.638 9.95242 43.1457 11.1415 42.2693 12.0186C41.3923 12.8949 40.2032 13.3872 38.9634 13.3872C37.7235 13.3872 36.5344 12.8949 35.6574 12.0186C34.781 11.1415 34.2887 9.95242 34.2887 8.71258C34.2887 7.47274 34.781 6.28363 35.6574 5.4066C36.5344 4.53024 37.7235 4.03796 38.9634 4.03796C40.2032 4.03796 41.3923 4.53024 42.2693 5.4066ZM22.6061 0.918459C23.6288 0.918726 24.6414 1.12044 25.5861 1.51208C26.5308 1.90371 27.3891 2.47761 28.112 3.20098C31.1553 6.24271 31.1553 11.1775 28.112 14.2193C26.65 15.68 24.6679 16.5006 22.6012 16.5006C20.5345 16.5006 18.5524 15.68 17.0904 14.2193C14.0479 11.1767 14.0479 6.24271 17.0904 3.20016C17.8134 2.47694 18.6717 1.90319 19.6164 1.5117C20.5611 1.1202 21.5737 0.918619 22.5963 0.918459H22.6061ZM25.9072 5.40497C26.7838 6.28203 27.2762 7.47132 27.2762 8.71135C27.2762 9.95139 26.7838 11.1407 25.9072 12.0177C25.0301 12.8941 23.841 13.3864 22.6012 13.3864C21.3614 13.3864 20.1722 12.8941 19.2952 12.0177C18.4189 11.1407 17.9266 9.9516 17.9266 8.71176C17.9266 7.47192 18.4189 6.28281 19.2952 5.40579C20.1722 4.52942 21.3614 4.03714 22.6012 4.03714C23.841 4.03714 25.0301 4.52942 25.9072 5.40579V5.40497Z" fill="#4C4C4D"/>
</svg>
