<svg width="92" height="25" viewBox="0 0 92 25" fill="none" xmlns="http://www.w3.org/2000/svg">
<path d="M32.7132 20.6319V10.3221H32.8969L40.4014 20.6319H42.763V5.49177H40.139V15.7756H39.9553L32.4508 5.49177H30.0892V20.6319H32.7132ZM50.1888 20.8656C53.6525 20.8656 55.7779 18.6323 55.7779 14.8927C55.7779 11.1791 53.6525 8.91973 50.1888 8.91973C46.7514 8.91973 44.5998 11.1791 44.5998 14.8927C44.626 18.6323 46.7252 20.8656 50.1888 20.8656ZM50.1888 18.6842C48.352 18.6842 47.3025 17.3078 47.3025 14.8927C47.3025 12.5035 48.352 11.1011 50.1888 11.1011C52.0256 11.1011 53.0752 12.5035 53.0752 14.8927C53.0752 17.3078 52.0256 18.6842 50.1888 18.6842ZM58.1657 6.34876V9.23136H56.3289V11.3089H58.1657V17.5675C58.1657 19.8009 59.2153 20.6838 61.8917 20.6838C62.3903 20.6838 62.8889 20.6319 63.2824 20.554V18.5284C62.9676 18.5544 62.7576 18.5803 62.3903 18.5803C61.2882 18.5803 60.7897 18.0869 60.7897 16.9443V11.3089H63.2824V9.23136H60.7897V6.34876H58.1657ZM64.8568 20.6319H67.4808V9.15345H64.8568V20.6319ZM66.1688 7.25769C67.0347 7.25769 67.7432 6.55651 67.7432 5.69952C67.7432 4.81657 67.0347 4.1154 66.1688 4.1154C65.3029 4.1154 64.5944 4.81657 64.5944 5.69952C64.5944 6.55651 65.3029 7.25769 66.1688 7.25769ZM74.6705 20.8656C78.1341 20.8656 80.2595 18.6323 80.2595 14.8927C80.2595 11.1791 78.1341 8.91973 74.6705 8.91973C71.2331 8.91973 69.0814 11.1791 69.0814 14.8927C69.0814 18.6323 71.1806 20.8656 74.6705 20.8656ZM74.6705 18.6842C72.8337 18.6842 71.7841 17.3078 71.7841 14.8927C71.7841 12.5035 72.8337 11.1011 74.6705 11.1011C76.481 11.1011 77.5568 12.5035 77.5568 14.8927C77.5306 17.3078 76.481 18.6842 74.6705 18.6842ZM81.8077 20.6319H84.4316V13.9578C84.4316 12.2698 85.4288 11.205 86.9769 11.205C88.5775 11.205 89.3122 12.088 89.3122 13.8279V20.6319H91.9362V13.2047C91.9362 10.4519 90.5193 8.91973 87.9478 8.91973C86.2159 8.91973 85.0614 9.69881 84.5104 10.9973H84.3267V9.15345H81.7814C81.8077 9.15345 81.8077 20.6319 81.8077 20.6319Z" fill="#4C4C4D"/>
<path fill-rule="evenodd" clip-rule="evenodd" d="M4.92983 4.52274C5.69354 5.13884 5.96977 5.0902 7.3997 4.99292L20.8702 4.18226C21.1627 4.18226 20.919 3.89041 20.8215 3.85799L18.5791 2.25287C18.1566 1.9286 17.5717 1.53948 16.483 1.63676L3.45116 2.59335C2.97993 2.64199 2.88243 2.88519 3.07742 3.06353L4.92983 4.52274ZM5.74229 7.65191V21.79C5.74229 22.552 6.11602 22.8276 6.97722 22.779L21.7802 21.9197C22.6414 21.871 22.7389 21.3522 22.7389 20.7361V6.69533C22.7389 6.07922 22.4952 5.73874 21.9752 5.78738L6.506 6.69533C5.93727 6.74397 5.74229 7.03581 5.74229 7.65191ZM20.3503 8.41394C20.4478 8.83549 20.3503 9.27325 19.9278 9.32189L19.2128 9.46781V19.9092C18.5954 20.2335 18.0266 20.428 17.5392 20.428C16.7755 20.428 16.5805 20.1848 16.0117 19.4715L11.3482 12.1592V19.2283L12.8269 19.5525C12.8269 19.5525 12.8269 20.4118 11.6407 20.4118L8.3584 20.6064C8.2609 20.4118 8.3584 19.9416 8.68338 19.8444L9.54459 19.6012V10.2623L8.3584 10.165C8.2609 9.74344 8.50464 9.12733 9.17086 9.07869L12.6969 8.83549L17.5554 16.2288V9.6948L16.3205 9.54888C16.223 9.03005 16.613 8.64093 17.0842 8.59229L20.3503 8.41394ZM2.36246 1.29628L15.9305 0.307262C17.5879 0.161342 18.0266 0.258622 19.0666 1.02065L23.3889 4.05255C24.1038 4.57138 24.3476 4.7173 24.3476 5.28476V21.9359C24.3476 22.9735 23.9738 23.5896 22.6414 23.6869L6.89598 24.6435C5.88853 24.6922 5.4173 24.5462 4.89733 23.8815L1.69625 19.7471C1.12753 18.9851 0.883789 18.4176 0.883789 17.7528V2.95004C0.883789 2.09073 1.27377 1.39356 2.36246 1.29628Z" fill="#4C4C4D"/>
</svg>
