<svg width="95" height="34" viewBox="0 0 95 34" fill="none" xmlns="http://www.w3.org/2000/svg">
<g clip-path="url(#clip0_23_31891)">
<path d="M10.5481 4.25H0.181641V29.0417L10.5481 4.25Z" fill="#4C4C4D"/>
<path d="M17.8418 4.25H28.1947V29.0417L17.8418 4.25Z" fill="#4C4C4D"/>
<path d="M14.1946 13.3875L20.7927 29.0419H16.4637L14.4918 24.0579H9.66309L14.1946 13.3875Z" fill="#4C4C4D"/>
<path d="M45.1077 20.0147L46.33 23.5197C46.3706 23.6074 46.4313 23.648 46.5394 23.648H48.8896C49.0179 23.648 49.0382 23.5872 49.0179 23.4589L44.1622 9.97237C44.142 9.86432 44.1217 9.84406 44.0136 9.84406H41.0962C41.0151 9.84406 40.9679 9.90484 40.9679 9.99263C40.9273 10.7017 40.8666 10.9178 40.7788 11.1272L36.4498 23.4386C36.4296 23.5872 36.4769 23.648 36.5984 23.648H38.6987C38.827 23.648 38.8878 23.6074 38.9351 23.4791L40.0899 20.0147H45.1077ZM40.7585 17.7253C41.3933 15.8073 42.2307 13.3491 42.5684 11.9444H42.5887C43.0074 13.4166 43.9934 16.3341 44.4391 17.7253H40.7585Z" fill="#4C4C4D"/>
<path d="M55.2605 23.8567C56.5233 23.8567 57.8673 23.6271 59.2315 23.0395C59.3395 22.999 59.3598 22.9517 59.3598 22.8504C59.3192 22.4723 59.272 21.9252 59.272 21.5065V8.81016C59.272 8.72912 59.272 8.6886 59.1707 8.6886H56.8813C56.7935 8.6886 56.753 8.72912 56.753 8.83717V13.1391C56.395 13.0986 56.1452 13.0783 55.848 13.0783C52.1539 13.0783 49.8848 15.5163 49.8848 18.562C49.8848 22.0941 52.2147 23.8567 55.2605 23.8567ZM56.753 21.5065C56.3748 21.6281 55.9561 21.6754 55.5306 21.6754C53.8558 21.6754 52.4848 20.7299 52.4848 18.4337C52.4848 16.401 53.8963 15.1989 55.767 15.1989C56.1452 15.1989 56.4761 15.2394 56.753 15.3474V21.5065Z" fill="#4C4C4D"/>
<path d="M66.6612 13.0793C63.5074 13.0793 61.5557 15.4971 61.5557 18.4821C61.5557 21.1496 63.1089 23.8577 66.6139 23.8577C69.5787 23.8577 71.6587 21.6764 71.6587 18.4145C71.6587 15.5376 69.8961 13.0793 66.6612 13.0793ZM66.5329 15.1999C68.3158 15.1999 69.0722 16.7329 69.0722 18.4821C69.0722 20.6431 67.9579 21.7169 66.6612 21.7169C65.0607 21.7169 64.1152 20.373 64.1152 18.4348C64.1152 16.4425 65.1214 15.1999 66.5329 15.1999Z" fill="#4C4C4D"/>
<path d="M74.0265 8.6886C73.9387 8.6886 73.8779 8.72912 73.8779 8.83717V23.2084C73.8779 23.2692 73.9387 23.3772 74.0265 23.3975C75.0328 23.7081 76.0863 23.8567 77.1736 23.8567C80.2869 23.8567 83.3124 21.9252 83.3124 18.0353C83.3124 15.2191 81.3809 13.0783 78.3554 13.0783C77.6598 13.0783 77.0115 13.1864 76.4442 13.3754L76.4172 8.85743C76.4172 8.70886 76.3767 8.6886 76.2281 8.6886H74.0265ZM80.7258 18.2919C80.7258 20.6218 79.1321 21.7159 77.4099 21.7159C77.052 21.7159 76.7346 21.6956 76.4442 21.6078V15.4757C76.7751 15.3474 77.1736 15.2394 77.9097 15.2394C79.571 15.2394 80.7258 16.2929 80.7258 18.2919Z" fill="#4C4C4D"/>
<path d="M91.857 19.0493C92.8835 19.0493 93.7276 19.0291 94.018 18.9615C94.1261 18.9413 94.1666 18.9008 94.1869 18.813C94.2477 18.5834 94.2747 18.1039 94.2747 17.5163C94.2747 15.5173 93.0726 13.0793 89.966 13.0793C86.7919 13.0793 85.0293 15.6659 85.0293 18.5834C85.0293 21.1699 86.3935 23.8577 90.2159 23.8577C91.6476 23.8577 92.5728 23.6281 93.3697 23.2499C93.4508 23.2094 93.4913 23.1419 93.4913 23.0203V21.2712C93.4913 21.1699 93.4305 21.1496 93.3697 21.1902C92.5728 21.5278 91.7084 21.6967 90.7629 21.6967C88.6221 21.6967 87.6496 20.5148 87.5888 19.0493H91.857ZM87.5888 17.2394C87.7577 16.2129 88.406 15.0986 89.858 15.0986C91.4585 15.0986 91.8772 16.4425 91.8772 17.0503C91.8772 17.0706 91.8772 17.1584 91.8772 17.2192C91.7894 17.2394 91.5193 17.2394 90.7224 17.2394H87.5888Z" fill="#4C4C4D"/>
</g>
<defs>
<clipPath id="clip0_23_31891">
<rect width="94.2083" height="34" fill="white" transform="translate(0.181641)"/>
</clipPath>
</defs>
</svg>
