<svg width="80" height="22" viewBox="0 0 80 22" fill="none" xmlns="http://www.w3.org/2000/svg">
<path d="M11.3567 19.9618C10.1739 20.1695 8.97022 20.2318 7.72513 20.3977L3.92744 9.27471V20.875C2.74462 20.9995 1.66554 21.1655 0.544922 21.3315V0.081543H3.6993L8.01562 12.1386V0.081543H11.3567V19.9618ZM17.8936 7.86353C19.1803 7.86353 21.1517 7.80126 22.3345 7.80126V11.1215C20.861 11.1215 19.1387 11.1215 17.8936 11.1838V16.1228C19.8443 15.9983 21.795 15.8322 23.7663 15.7699V18.9655L14.5732 19.692V0.081543H23.7663V3.40186H17.8936V7.86353ZM36.1137 3.40194H32.6689V18.6753C31.5483 18.6753 30.4277 18.6754 29.3488 18.7167V3.40194H25.904V0.081543H36.1139L36.1137 3.40194ZM41.5092 7.63532H46.054V10.9556H41.5092V18.4886H38.2509V0.081543H47.5273V3.40186H41.5092V7.63532ZM52.9228 15.5832C54.8113 15.6246 56.7203 15.7701 58.5674 15.8737V19.1526C55.5999 18.9657 52.6323 18.7792 49.6026 18.7167V0.081543H52.9228V15.5832ZM61.3688 19.3809C62.4272 19.4432 63.5478 19.5055 64.6269 19.6298V0.081543H61.3688V19.3809ZM79.1741 0.081543L74.9614 10.1878L79.1741 21.3315C77.9289 21.1655 76.6838 20.9372 75.4386 20.7297L73.0523 14.5872L70.6245 20.2318C69.4206 20.0241 68.2586 19.9618 67.0552 19.7958L71.33 10.0632L67.47 0.081543H71.0392L73.2182 5.66383L75.5425 0.081543H79.1741V0.081543Z" fill="#ffffff"/>
</svg>
