<svg width="101" height="30" viewBox="0 0 101 30" fill="none" xmlns="http://www.w3.org/2000/svg">
<path d="M15.7747 0.180786C7.55948 0.180786 0.899414 6.84067 0.899414 15.0559C0.899414 23.2714 7.55948 29.9308 15.7747 29.9308C23.9908 29.9308 30.6501 23.2714 30.6501 15.0559C30.6501 6.8412 23.9908 0.181497 15.7745 0.181497L15.7747 0.180786ZM22.5964 21.6349C22.33 22.0719 21.758 22.2105 21.321 21.9422C17.8285 19.8089 13.4318 19.3257 8.25383 20.5088C7.75487 20.6224 7.25751 20.3098 7.14382 19.8107C7.02961 19.3115 7.34099 18.8142 7.8412 18.7005C13.5076 17.4059 18.3681 17.9633 22.2891 20.3596C22.7261 20.6278 22.8646 21.198 22.5964 21.6349ZM24.4171 17.5846C24.0814 18.1303 23.3673 18.3026 22.822 17.9669C18.8235 15.5092 12.7285 14.7974 7.99911 16.233C7.38576 16.4183 6.73794 16.0726 6.55178 15.4603C6.36705 14.847 6.71289 14.2004 7.32518 14.0139C12.7274 12.3747 19.4435 13.1687 24.0352 15.9904C24.5805 16.3261 24.7528 17.0402 24.4171 17.5848V17.5846ZM24.5734 13.367C19.7792 10.5194 11.8693 10.2576 7.29197 11.6468C6.55693 11.8697 5.77962 11.4548 5.55688 10.7197C5.33413 9.98436 5.74872 9.20759 6.48428 8.98413C11.7388 7.38901 20.4737 7.6972 25.9934 10.9739C26.656 11.3663 26.8727 12.2202 26.4801 12.8804C26.0893 13.5416 25.2331 13.7595 24.5741 13.367H24.5734ZM41.3701 13.9126C38.8016 13.3002 38.3451 12.8703 38.3451 11.9671C38.3451 11.1137 39.148 10.5395 40.3434 10.5395C41.5016 10.5395 42.6491 10.9755 43.8534 11.8733C43.8889 11.9005 43.9351 11.9113 43.9795 11.9042C44.0257 11.8974 44.0648 11.8727 44.0914 11.8356L45.3455 10.0678C45.397 9.99502 45.3828 9.89466 45.3135 9.83906C43.88 8.68926 42.2672 8.13026 40.3807 8.13026C37.6079 8.13026 35.67 9.79448 35.67 12.1756C35.67 14.729 37.3415 15.6332 40.2297 16.3311C42.6864 16.8972 43.102 17.3715 43.102 18.2191C43.102 19.1588 42.2636 19.7432 40.9136 19.7432C39.4144 19.7432 38.1905 19.2369 36.8228 18.0539C36.789 18.0237 36.7429 18.0113 36.7002 18.0131C36.654 18.0166 36.6132 18.0379 36.5848 18.0717L35.1779 19.7449C35.1193 19.816 35.1264 19.919 35.1939 19.9794C36.7855 21.4005 38.743 22.1501 40.8568 22.1501C43.8445 22.1501 45.7754 20.5176 45.7754 17.99C45.7807 15.8572 44.5035 14.6759 41.3755 13.915L41.3701 13.9126ZM52.536 11.3796C51.241 11.3796 50.1788 11.8898 49.3013 12.9352V11.7585C49.3013 11.6656 49.2267 11.59 49.1343 11.59H46.834C46.7417 11.59 46.6671 11.6656 46.6671 11.7585V24.8323C46.6671 24.9246 46.7417 25.001 46.834 25.001H49.1343C49.2267 25.001 49.3013 24.9246 49.3013 24.8323V20.7059C50.1788 21.6882 51.241 22.1696 52.536 22.1696C54.9428 22.1696 57.3799 20.3169 57.3799 16.7752C57.3835 13.2327 54.9464 11.3795 52.5377 11.3795L52.536 11.3796ZM54.7048 16.7752C54.7048 18.5779 53.5946 19.8373 52.0031 19.8373C50.431 19.8373 49.2445 18.5211 49.2445 16.7752C49.2445 15.0291 50.431 13.7132 52.0031 13.7132C53.568 13.713 54.7048 15.0005 54.7048 16.775V16.7752ZM63.6236 11.3796C60.524 11.3796 58.0958 13.7663 58.0958 16.8137C58.0958 19.8284 60.508 22.1891 63.5863 22.1891C66.6966 22.1891 69.1319 19.8107 69.1319 16.7752C69.1319 13.7499 66.7126 11.38 63.6236 11.38V11.3796ZM63.6236 19.8551C61.9752 19.8551 60.7318 18.53 60.7318 16.7743C60.7318 15.0106 61.9326 13.7308 63.5863 13.7308C65.2454 13.7308 66.4959 15.0553 66.4959 16.8128C66.4959 18.5761 65.288 19.8551 63.6236 19.8551ZM75.7504 11.59H73.2192V9.0026C73.2192 8.90988 73.1446 8.83421 73.0522 8.83421H70.7519C70.6596 8.83421 70.5832 8.90988 70.5832 9.0026V11.59H69.4783C69.3859 11.59 69.3113 11.6656 69.3113 11.7585V13.735C69.3113 13.8277 69.3859 13.9036 69.4783 13.9036H70.5832V19.0184C70.5832 21.0843 71.6116 22.1323 73.642 22.1323C74.4662 22.1323 75.15 21.9618 75.7948 21.5959C75.8481 21.5674 75.8801 21.5106 75.8801 21.4502V19.5673C75.8801 19.5105 75.8499 19.4554 75.8002 19.4252C75.7504 19.3932 75.6883 19.3915 75.6367 19.4181C75.1945 19.6401 74.7664 19.7432 74.2868 19.7432C73.5496 19.7432 73.2192 19.4075 73.2192 18.6579V13.9045H75.7504C75.8428 13.9045 75.9174 13.8288 75.9174 13.7359V11.7596C75.921 11.6667 75.8464 11.591 75.7522 11.591L75.7504 11.59ZM84.568 11.6001V11.2823C84.568 10.3474 84.9268 9.93054 85.7297 9.93054C86.2093 9.93054 86.5947 10.0257 87.0264 10.1696C87.0797 10.1863 87.1348 10.178 87.1774 10.1462C87.2218 10.1144 87.2467 10.0634 87.2467 10.0094V8.07146C87.2467 7.99739 87.2005 7.93185 87.1276 7.91C86.6729 7.77447 86.0903 7.63538 85.2163 7.63538C83.0937 7.63538 81.9693 8.83154 81.9693 11.0933V11.58H80.8644C80.772 11.58 80.6957 11.6557 80.6957 11.7484V13.735C80.6957 13.8277 80.772 13.9036 80.8644 13.9036H81.9693V21.7912C81.9693 21.8854 82.0456 21.96 82.138 21.96H84.4365C84.5307 21.96 84.6053 21.8854 84.6053 21.7912V13.9041H86.7528L90.0426 21.7912C89.6695 22.619 89.3018 22.7842 88.8009 22.7842C88.3959 22.7842 87.9678 22.6634 87.5326 22.4236C87.4918 22.4023 87.442 22.3987 87.3994 22.4112C87.355 22.4272 87.3177 22.4591 87.2999 22.5018L86.5201 24.2123C86.4828 24.2941 86.5148 24.3882 86.593 24.4308C87.4065 24.8714 88.1401 25.0596 89.0478 25.0596C90.746 25.0596 91.6856 24.2674 92.5116 22.1394L96.5012 11.8303C96.5225 11.7784 96.5154 11.7198 96.4834 11.6738C96.4532 11.6281 96.4017 11.6006 96.3466 11.6006H93.9522C93.8794 11.6006 93.8154 11.6463 93.7923 11.7136L91.3393 18.7182L88.6535 11.709C88.6286 11.6438 88.5664 11.6006 88.4972 11.6006H84.568V11.6001ZM79.4558 11.59H77.1555C77.0631 11.59 76.9867 11.6656 76.9867 11.7585V21.7912C76.9867 21.8854 77.0631 21.96 77.1555 21.96H79.4558C79.5482 21.96 79.6245 21.8854 79.6245 21.7912V11.7592C79.6245 11.6663 79.5499 11.5907 79.4558 11.5907V11.59ZM78.319 7.02149C77.4077 7.02149 76.6688 7.75901 76.6688 8.67008C76.6688 9.58167 77.4077 10.3201 78.319 10.3201C79.2302 10.3201 79.9674 9.58167 79.9674 8.67008C79.9674 7.75919 79.2284 7.02149 78.319 7.02149ZM98.4658 14.8159C97.5563 14.8159 96.8476 14.0849 96.8476 13.1973C96.8476 12.3097 97.5652 11.5704 98.4747 11.5704C99.3841 11.5704 100.093 12.3012 100.093 13.1881C100.093 14.0757 99.3752 14.8159 98.4658 14.8159ZM98.4747 11.7314C97.6451 11.7314 97.0181 12.3904 97.0181 13.1973C97.0181 14.004 97.6416 14.6541 98.4658 14.6541C99.2953 14.6541 99.9223 13.9956 99.9223 13.1881C99.9223 12.3815 99.2989 11.7314 98.4747 11.7314ZM98.8335 13.3545L99.2917 13.9954H98.9045L98.4924 13.4075H98.1389V13.9954H97.8156V12.2966H98.5723C98.9685 12.2966 99.2278 12.4985 99.2278 12.8385C99.2296 13.117 99.0679 13.2872 98.8352 13.3545H98.8335ZM98.5599 12.5881H98.1389V13.1254H98.5599C98.7695 13.1254 98.8956 13.0225 98.8956 12.8565C98.8956 12.6817 98.7695 12.5881 98.5599 12.5881Z" fill="#ffffff"/>
</svg>
