<svg width="78" height="34" viewBox="0 0 78 34" fill="none" xmlns="http://www.w3.org/2000/svg">
<g clip-path="url(#clip0_23_31887)">
<path fill-rule="evenodd" clip-rule="evenodd" d="M48.1609 26.7792C43.6534 30.1016 37.12 31.8743 31.4949 31.8743C23.6076 31.8743 16.507 28.957 11.1351 24.1051C10.713 23.7236 11.0912 23.2036 11.5976 23.5007C17.395 26.8738 24.5631 28.903 31.9676 28.903C36.9613 28.903 42.4548 27.8698 47.5059 25.7258C48.269 25.4016 48.9071 26.2255 48.1609 26.7792Z" fill="#4C4C4D"/>
<path fill-rule="evenodd" clip-rule="evenodd" d="M50.0349 24.6352C49.4609 23.8992 46.2263 24.2875 44.7744 24.4596C44.3321 24.5137 44.2646 24.1288 44.663 23.8519C47.2392 22.0388 51.4665 22.5621 51.9594 23.1699C52.4524 23.781 51.8311 28.0184 49.4102 30.0409C49.0388 30.3515 48.6843 30.1861 48.8498 29.7741C49.3934 28.4168 50.6122 25.3747 50.0349 24.6352Z" fill="#4C4C4D"/>
<path fill-rule="evenodd" clip-rule="evenodd" d="M44.8766 11.0526V9.29008C44.8766 9.02335 45.0792 8.8444 45.3223 8.8444H53.213C53.4662 8.8444 53.6688 9.02672 53.6688 9.29008V10.7993C53.6654 11.0526 53.4527 11.3835 53.0746 11.9068L48.9857 17.7446C50.5051 17.7075 52.1089 17.9337 53.4865 18.7103C53.7971 18.8859 53.8815 19.1425 53.9052 19.3957V21.2764C53.9052 21.533 53.6215 21.8335 53.3244 21.6782C50.8968 20.4053 47.6723 20.2668 44.988 21.6917C44.7145 21.8403 44.4275 21.5431 44.4275 21.2865V19.5004C44.4275 19.2134 44.4309 18.7238 44.7179 18.2883L49.455 11.4949H45.3324C45.0792 11.4949 44.8766 11.3159 44.8766 11.0526Z" fill="#4C4C4D"/>
<path fill-rule="evenodd" clip-rule="evenodd" d="M16.0926 22.0496H13.6919C13.4623 22.0327 13.28 21.8605 13.2631 21.6411V9.3205C13.2631 9.07402 13.4691 8.87818 13.7257 8.87818H15.9643C16.1972 8.88831 16.3829 9.06726 16.3998 9.29011V10.9007H16.4437C17.0278 9.34413 18.1252 8.6182 19.604 8.6182C21.1066 8.6182 22.0452 9.34413 22.7205 10.9007C23.3012 9.34413 24.6214 8.6182 26.0361 8.6182C27.0423 8.6182 28.143 9.0335 28.8149 9.96539C29.5746 11.002 29.4193 12.5078 29.4193 13.828L29.4159 21.6039C29.4159 21.8504 29.21 22.0496 28.9534 22.0496H26.5561C26.3164 22.0327 26.1239 21.8403 26.1239 21.6039V15.0739C26.1239 14.554 26.1712 13.2574 26.0564 12.7644C25.8774 11.9372 25.3406 11.7042 24.645 11.7042C24.0643 11.7042 23.4565 12.0925 23.2101 12.7138C22.9636 13.3351 22.9872 14.375 22.9872 15.0739V21.6039C22.9872 21.8504 22.7813 22.0496 22.5247 22.0496H20.1274C19.8843 22.0327 19.6952 21.8403 19.6952 21.6039L19.6918 15.0739C19.6918 13.6997 19.9181 11.6772 18.213 11.6772C16.4876 11.6772 16.5551 13.6491 16.5551 15.0739V21.6039C16.5551 21.8504 16.3492 22.0496 16.0926 22.0496Z" fill="#4C4C4D"/>
<path fill-rule="evenodd" clip-rule="evenodd" d="M60.4621 8.6182C64.0242 8.6182 65.9521 11.6772 65.9521 15.5669C65.9521 19.3248 63.8216 22.3062 60.4621 22.3062C56.9641 22.3062 55.0598 19.2472 55.0598 15.4352C55.0598 11.5996 56.9877 8.6182 60.4621 8.6182ZM60.4823 11.1336C58.7131 11.1336 58.6017 13.5444 58.6017 15.0469C58.6017 16.5528 58.578 19.7671 60.4621 19.7671C62.3225 19.7671 62.4103 17.1741 62.4103 15.5939C62.4103 14.554 62.3664 13.3114 62.0524 12.3255C61.7823 11.4679 61.2454 11.1336 60.4823 11.1336Z" fill="#4C4C4D"/>
<path fill-rule="evenodd" clip-rule="evenodd" d="M70.5712 22.0496H68.1807C67.9409 22.0327 67.7485 21.8403 67.7485 21.6039L67.7451 9.27998C67.7654 9.05376 67.9646 8.87818 68.2077 8.87818H70.4328C70.6421 8.88831 70.8143 9.03012 70.8616 9.22258V11.1066H70.9054C71.5774 9.42179 72.5194 8.6182 74.1772 8.6182C75.2543 8.6182 76.3043 9.00649 76.9796 10.0701C77.6076 11.056 77.6076 12.7138 77.6076 13.9057V21.6613C77.5806 21.8774 77.3814 22.0496 77.1451 22.0496H74.7377C74.5182 22.0327 74.3359 21.8707 74.3123 21.6613V14.9693C74.3123 13.6221 74.4676 11.6502 72.8097 11.6502C72.2256 11.6502 71.6888 12.0419 71.422 12.6361C71.0844 13.3891 71.0405 14.1387 71.0405 14.9693V21.6039C71.0371 21.8504 70.8278 22.0496 70.5712 22.0496Z" fill="#4C4C4D"/>
<path fill-rule="evenodd" clip-rule="evenodd" d="M38.5863 16.1645C38.5863 17.0998 38.61 17.8797 38.1373 18.7103C37.7557 19.3856 37.148 19.8009 36.4761 19.8009C35.5543 19.8009 35.0141 19.0986 35.0141 18.062C35.0141 16.0159 36.8475 15.6445 38.5863 15.6445V16.1645ZM41.0072 22.0158C40.8485 22.1576 40.6189 22.1678 40.44 22.0732C39.6432 21.4114 39.498 21.1042 39.0624 20.4728C37.7456 21.8166 36.8103 22.2184 35.1052 22.2184C33.0828 22.2184 31.5127 20.9725 31.5127 18.4773C31.5127 16.5291 32.5662 15.2022 34.0721 14.5539C35.3754 13.9799 37.1953 13.8786 38.5863 13.72V13.4093C38.5863 12.8387 38.6302 12.1634 38.2926 11.6705C38.0022 11.2282 37.4417 11.0458 36.9454 11.0458C36.0304 11.0458 35.2167 11.5151 35.0175 12.4876C34.9769 12.7036 34.8183 12.9164 34.5988 12.9265L32.2724 12.6766C32.0766 12.6327 31.8571 12.4741 31.9145 12.1736C32.448 9.35086 35.0006 8.5 37.283 8.5C38.4513 8.5 39.9774 8.81063 40.8992 9.69525C42.0674 10.7858 41.956 12.2411 41.956 13.8246V17.5657C41.956 18.6901 42.422 19.183 42.8609 19.7908C43.0128 20.0069 43.0466 20.2668 42.8507 20.4289C42.3612 20.8375 41.4901 21.5972 41.0106 22.0226L41.0072 22.0158Z" fill="#4C4C4D"/>
<path fill-rule="evenodd" clip-rule="evenodd" d="M7.11462 16.1645C7.11462 17.0997 7.13825 17.8797 6.66556 18.7103C6.28402 19.3856 5.67964 19.8009 5.00435 19.8009C4.08259 19.8009 3.54574 19.0986 3.54574 18.062C3.54574 16.0159 5.37914 15.6445 7.11462 15.6445V16.1645ZM9.53551 22.0158C9.37682 22.1576 9.14722 22.1678 8.96827 22.0732C8.17144 21.4114 8.02963 21.1042 7.59069 20.4728C6.27389 21.8166 5.342 22.2184 3.63353 22.2184C1.61443 22.2184 0.0410156 20.9725 0.0410156 18.4773C0.0410156 16.5291 1.09784 15.2022 2.60034 14.5539C3.90364 13.9799 5.72353 13.8786 7.11462 13.72V13.4093C7.11462 12.8387 7.15851 12.1634 6.82425 11.6705C6.5305 11.2281 5.97001 11.0458 5.47705 11.0458C4.56205 11.0458 3.74495 11.5151 3.54574 12.4876C3.50522 12.7036 3.34653 12.9164 3.13044 12.9265L0.800711 12.6766C0.604878 12.6327 0.388786 12.474 0.442809 12.1735C0.979661 9.35086 3.52886 8.5 5.81132 8.5C6.97956 8.5 8.5057 8.81063 9.42747 9.69525C10.5957 10.7858 10.4843 12.2411 10.4843 13.8246V17.5657C10.4843 18.69 10.9502 19.183 11.3892 19.7908C11.5445 20.0068 11.5782 20.2668 11.3824 20.4289C10.8928 20.8374 10.0217 21.5971 9.54226 22.0226L9.53551 22.0158Z" fill="#4C4C4D"/>
</g>
<defs>
<clipPath id="clip0_23_31887">
<rect width="77.9166" height="34" fill="white" transform="translate(0.0419922)"/>
</clipPath>
</defs>
</svg>
