<svg width="68" height="32" viewBox="0 0 68 32" fill="none" xmlns="http://www.w3.org/2000/svg">
<path d="M0.143555 25.0715L7.12378 14.2101H0.970454C0.918307 13.8972 0.895959 13.5545 0.895959 13.1746C0.895959 12.8095 0.918307 12.4743 0.970454 12.1689H10.9305L11.0571 12.5041L4.02477 23.3879H10.6176C10.6698 23.7306 10.6921 24.0882 10.6921 24.4457C10.6921 24.7884 10.6698 25.1162 10.6176 25.4291H0.270197L0.143555 25.0715Z" fill="#4C4C4D"/>
<path d="M20.2872 16.6909C20.2872 15.6703 20.0264 14.97 19.5124 14.5678C18.9984 14.1729 18.246 13.9718 17.2627 13.9718C16.6593 13.9718 16.0931 14.0165 15.5716 14.1134C15.0427 14.2102 14.5361 14.3294 14.0296 14.4858C13.7018 13.9197 13.5379 13.2343 13.5379 12.4447C14.1264 12.2584 14.7671 12.1094 15.4748 12.0051C16.1825 11.9008 16.8604 11.8487 17.5159 11.8487C19.2368 11.8487 20.5479 12.2435 21.4493 13.0257C22.3433 13.8079 22.7977 15.0669 22.7977 16.7877V25.0865C22.1943 25.2206 21.4642 25.3696 20.6001 25.5112C19.7359 25.6602 18.8569 25.7272 17.9629 25.7272C17.1211 25.7272 16.3538 25.6527 15.6759 25.4963C14.998 25.3398 14.4169 25.094 13.9402 24.7439C13.4634 24.4012 13.0984 23.9617 12.8376 23.4253C12.5769 22.8889 12.4503 22.2408 12.4503 21.4884C12.4503 20.7509 12.5992 20.0953 12.9047 19.5366C13.2027 18.9779 13.6124 18.5086 14.1339 18.1436C14.6479 17.7711 15.2438 17.4954 15.9217 17.3167C16.5922 17.1379 17.2999 17.041 18.0449 17.041C18.5961 17.041 19.0506 17.0559 19.4007 17.0783C19.7508 17.1006 20.0488 17.1379 20.2946 17.1677V16.6909H20.2872ZM20.2872 19.2014C20.0264 19.1641 19.6987 19.1343 19.3038 19.0971C18.909 19.0599 18.5738 19.045 18.2981 19.045C17.2254 19.045 16.4134 19.2461 15.8547 19.6409C15.296 20.0357 15.0129 20.6392 15.0129 21.4512C15.0129 21.9652 15.1097 22.3749 15.296 22.6654C15.4822 22.956 15.7206 23.1795 16.0037 23.3359C16.2868 23.4923 16.5997 23.5892 16.9498 23.619C17.2925 23.6562 17.6202 23.6711 17.9331 23.6711C18.3279 23.6711 18.7377 23.6488 19.1623 23.6041C19.5869 23.5594 19.9594 23.4998 20.2872 23.4104V19.2014Z" fill="#4C4C4D"/>
<path d="M25.5912 12.1694C25.7625 12.1322 25.9413 12.1098 26.1201 12.0949C26.2989 12.08 26.4851 12.0726 26.6788 12.0726C26.8502 12.0726 27.029 12.08 27.2226 12.0949C27.4089 12.1098 27.5951 12.1396 27.7665 12.1694C27.7814 12.2067 27.8037 12.311 27.8335 12.4898C27.8559 12.6686 27.8857 12.8622 27.908 13.0708C27.9304 13.2794 27.9602 13.4731 27.9825 13.6668C28.0049 13.8605 28.0198 13.9797 28.0198 14.0318C28.1911 13.7562 28.3997 13.488 28.6381 13.2273C28.8764 12.9665 29.167 12.7356 29.5022 12.527C29.8374 12.3184 30.2174 12.1545 30.642 12.0353C31.0666 11.9162 31.5359 11.8566 32.05 11.8566C32.8247 11.8566 33.5473 11.9832 34.2103 12.2439C34.8733 12.5047 35.4395 12.8995 35.9163 13.4433C36.393 13.9871 36.7581 14.6799 37.0262 15.5143C37.2944 16.3486 37.4285 17.3394 37.4285 18.4792C37.4285 20.7588 36.8102 22.5392 35.581 23.8205C34.3444 25.1019 32.6012 25.75 30.344 25.75C29.9641 25.75 29.5767 25.7276 29.1819 25.6755C28.7871 25.6233 28.4369 25.5563 28.1464 25.4669V31.5457C27.9378 31.583 27.7218 31.6053 27.4834 31.6202C27.2524 31.6351 27.0364 31.6426 26.8502 31.6426C26.6639 31.6426 26.4479 31.6351 26.217 31.6202C25.986 31.6053 25.77 31.5755 25.5837 31.5457V12.1694H25.5912ZM28.1538 23.2618C28.4816 23.381 28.8169 23.4704 29.1595 23.5226C29.5022 23.5747 29.9492 23.597 30.5079 23.597C31.1262 23.597 31.6998 23.5002 32.2138 23.2991C32.7279 23.0979 33.1748 22.7925 33.5473 22.3828C33.9198 21.9656 34.2103 21.4441 34.4264 20.8184C34.6424 20.1926 34.7467 19.4402 34.7467 18.5835C34.7467 17.2053 34.4934 16.1102 33.9868 15.2982C33.4803 14.4862 32.6459 14.084 31.4912 14.084C31.0592 14.084 30.6494 14.1585 30.2472 14.3149C29.8523 14.4713 29.4948 14.7023 29.1893 15.0152C28.8764 15.328 28.6306 15.7154 28.4369 16.1922C28.2432 16.669 28.1538 17.2277 28.1538 17.8832V23.2618Z" fill="#4C4C4D"/>
<path d="M40.6169 14.1803H38.9333C38.8961 14.0387 38.8737 13.8823 38.8588 13.7035C38.8439 13.5247 38.8365 13.3459 38.8365 13.1746C38.8365 13.0032 38.8439 12.8244 38.8588 12.6456C38.8737 12.4669 38.9035 12.303 38.9333 12.1689H43.1274V25.4365C42.9412 25.4738 42.7251 25.4961 42.4942 25.511C42.2633 25.5259 42.0472 25.5334 41.861 25.5334C41.6897 25.5334 41.4885 25.5259 41.2501 25.511C41.0192 25.4961 40.8032 25.4663 40.6169 25.4365V14.1803Z" fill="#4C4C4D"/>
<path d="M48.6326 19.4325C48.6699 20.8777 49.0423 21.943 49.7575 22.6135C50.4727 23.2839 51.5305 23.6192 52.9236 23.6192C54.1453 23.6192 55.3149 23.4031 56.4174 22.9711C56.5589 23.2318 56.6707 23.5447 56.7526 23.9171C56.842 24.2896 56.8867 24.6546 56.9091 25.0197C56.3429 25.2581 55.7171 25.4443 55.0318 25.5635C54.3539 25.6827 53.594 25.7423 52.7671 25.7423C51.5603 25.7423 50.5248 25.5709 49.6607 25.2357C48.7965 24.9005 48.0888 24.4237 47.5301 23.8129C46.9714 23.202 46.5616 22.4794 46.3009 21.6376C46.0402 20.8032 45.9135 19.8869 45.9135 18.8813C45.9135 17.8979 46.0402 16.9816 46.286 16.1249C46.5318 15.2682 46.9192 14.5307 47.4332 13.8975C47.9473 13.2717 48.6028 12.7652 49.385 12.4001C50.1672 12.0277 51.0984 11.8414 52.1637 11.8414C53.08 11.8414 53.8771 11.9979 54.5699 12.3107C55.2627 12.6236 55.8363 13.0483 56.3057 13.5921C56.7675 14.1359 57.1251 14.784 57.3635 15.529C57.6019 16.2814 57.7285 17.0934 57.7285 17.9724C57.7285 18.2108 57.7211 18.4715 57.6987 18.7323C57.6838 19.0004 57.6615 19.2314 57.6466 19.4176H48.6326V19.4325ZM55.2031 17.518C55.2031 17.0338 55.1361 16.5719 55.0094 16.1324C54.8828 15.6928 54.6891 15.3129 54.4433 14.9851C54.19 14.6574 53.8771 14.3966 53.4897 14.1955C53.1023 13.9943 52.6405 13.8975 52.1041 13.8975C51.0537 13.8975 50.2492 14.2178 49.683 14.851C49.1243 15.4917 48.7816 16.3782 48.6624 17.518H55.2031Z" fill="#4C4C4D"/>
<path d="M60.5594 12.1689C60.7456 12.1316 60.9319 12.1093 61.1032 12.0944C61.2746 12.0795 61.4533 12.072 61.647 12.072C61.8333 12.072 62.027 12.0795 62.2132 12.0944C62.3994 12.1093 62.5782 12.1391 62.7272 12.1689C62.7794 12.4296 62.8315 12.7648 62.8837 13.1895C62.9358 13.6141 62.9581 13.9717 62.9581 14.2622C63.3232 13.6737 63.7999 13.1671 64.3959 12.735C64.9919 12.303 65.7517 12.0869 66.6829 12.0869C66.8245 12.0869 66.966 12.0944 67.1075 12.1018C67.2565 12.1093 67.3757 12.1242 67.48 12.1391C67.5173 12.2955 67.5396 12.4594 67.5545 12.6307C67.5694 12.8021 67.5769 12.9809 67.5769 13.1746C67.5769 13.3832 67.562 13.5992 67.5396 13.8227C67.5173 14.0462 67.48 14.2622 67.4502 14.4708C67.3087 14.4335 67.1671 14.4186 67.0256 14.4186C66.8766 14.4186 66.7649 14.4186 66.6755 14.4186C66.2136 14.4186 65.7666 14.4857 65.342 14.6123C64.9174 14.739 64.5375 14.9699 64.2022 15.2977C63.867 15.6255 63.5988 16.0724 63.3977 16.6461C63.1965 17.2122 63.0997 17.9497 63.0997 18.8437V25.4365C62.9134 25.4738 62.6974 25.4961 62.4665 25.511C62.2355 25.5259 62.0195 25.5334 61.8333 25.5334C61.647 25.5334 61.431 25.5259 61.2001 25.511C60.9691 25.4961 60.7456 25.4663 60.537 25.4365V12.1689H60.5594Z" fill="#4C4C4D"/>
<path d="M45.5633 4.36204H43.0603L44.8333 2.58905C44.6917 2.39536 44.5353 2.20912 44.3714 2.03778C44.2 1.86644 44.0213 1.71 43.8201 1.57591L42.0471 3.3489V0.845851C41.8162 0.808604 41.5778 0.786255 41.332 0.786255H41.3245C41.0787 0.786255 40.8403 0.808604 40.6094 0.845851V3.3489L38.8364 1.57591C38.6427 1.71745 38.4564 1.87389 38.2851 2.03778C38.1138 2.20912 37.9648 2.38791 37.8232 2.58905L39.6037 4.36204H37.1006C37.1006 4.36204 37.041 4.83136 37.041 5.0772C37.041 5.32303 37.0634 5.56142 37.1006 5.79235H39.6037L37.8307 7.56534C38.1063 7.95272 38.449 8.2954 38.8438 8.57848L40.6168 6.80549V9.30854C40.8478 9.34579 41.0861 9.36814 41.332 9.36814H41.3394C41.5853 9.36814 41.8236 9.34579 42.0546 9.30854V6.80549L43.8276 8.57848C44.0213 8.43694 44.2075 8.2805 44.3788 8.11661C44.5502 7.94527 44.7066 7.76648 44.8407 7.56534L43.0677 5.79235H45.5708C45.608 5.56142 45.6304 5.32303 45.6304 5.0772V5.06975C45.6229 4.83136 45.608 4.59297 45.5633 4.36204ZM42.4047 5.08464C42.4047 5.40498 42.3451 5.71041 42.2408 5.99349C41.9577 6.09778 41.6523 6.15738 41.332 6.15738C41.0116 6.15738 40.7062 6.09778 40.4231 5.99349C40.3188 5.71041 40.2592 5.40498 40.2592 5.08464V5.0772C40.2592 4.75686 40.3188 4.45143 40.4231 4.16835C40.7062 4.06406 41.0116 4.00446 41.332 4.00446C41.6523 4.00446 41.9577 4.06406 42.2408 4.16835C42.3451 4.45143 42.4047 4.75686 42.4047 5.08464Z" fill="#4C4C4D"/>
</svg>
