<svg width="44" height="45" viewBox="0 0 44 45" fill="none" xmlns="http://www.w3.org/2000/svg">
<rect x="0.5" y="1.25" width="43" height="43" rx="5.5" fill="#F7F7F8"/>
<rect x="0.5" y="1.25" width="43" height="43" rx="5.5" stroke="#F1F1F3"/>
<path d="M13.25 19.9742V27.125C13.25 28.5057 14.3693 29.625 15.75 29.625H28.25C29.6307 29.625 30.75 28.5057 30.75 27.125V19.9742L23.3102 24.5526C22.5067 25.047 21.4933 25.047 20.6898 24.5526L13.25 19.9742Z" fill="#262626"/>
<path d="M30.75 18.5065V18.375C30.75 16.9943 29.6307 15.875 28.25 15.875H15.75C14.3693 15.875 13.25 16.9943 13.25 18.375V18.5065L21.3449 23.488C21.7466 23.7352 22.2534 23.7352 22.6551 23.488L30.75 18.5065Z" fill="#262626"/>
</svg>
