<svg width="14" height="18" viewBox="0 0 14 18" fill="none" xmlns="http://www.w3.org/2000/svg">
<path fill-rule="evenodd" clip-rule="evenodd" d="M6.61646 17.3759C6.64163 17.3905 6.66141 17.4017 6.67542 17.4096L6.69869 17.4226C6.88441 17.5245 7.1148 17.5238 7.3007 17.4229L7.32458 17.4096C7.33859 17.4017 7.35837 17.3905 7.38354 17.3759C7.43388 17.3467 7.50581 17.3042 7.59625 17.2485C7.77705 17.1372 8.03229 16.973 8.33718 16.7576C8.94591 16.3276 9.75812 15.6895 10.5721 14.8561C12.1922 13.1974 13.875 10.7051 13.875 7.5C13.875 3.70304 10.797 0.625 7 0.625C3.20304 0.625 0.125 3.70304 0.125 7.5C0.125 10.7051 1.80777 13.1974 3.42788 14.8561C4.24188 15.6895 5.05409 16.3276 5.66282 16.7576C5.96771 16.973 6.22295 17.1372 6.40375 17.2485C6.49419 17.3042 6.56612 17.3467 6.61646 17.3759ZM7 10C8.38071 10 9.5 8.88071 9.5 7.5C9.5 6.11929 8.38071 5 7 5C5.61929 5 4.5 6.11929 4.5 7.5C4.5 8.88071 5.61929 10 7 10Z" fill="#262626"/>
</svg>
