<svg width="18" height="18" viewBox="0 0 18 18" fill="none" xmlns="http://www.w3.org/2000/svg">
<path fill-rule="evenodd" clip-rule="evenodd" d="M0.25 3C0.25 1.61929 1.36929 0.5 2.75 0.5H3.89302C4.61 0.5 5.23498 0.987964 5.40887 1.68354L6.33037 5.36952C6.48284 5.97942 6.25495 6.62129 5.75202 6.99849L4.674 7.807C4.56206 7.89096 4.53772 8.0139 4.56917 8.09974C5.51542 10.6829 7.5671 12.7346 10.1503 13.6808C10.2361 13.7123 10.359 13.6879 10.443 13.576L11.2515 12.498C11.6287 11.9951 12.2706 11.7672 12.8805 11.9196L16.5665 12.8411C17.262 13.015 17.75 13.64 17.75 14.357V15.5C17.75 16.8807 16.6307 18 15.25 18H13.375C6.12626 18 0.25 12.1237 0.25 4.875V3Z" fill="#262626"/>
</svg>
