<svg width="21" height="18" viewBox="0 0 21 18" fill="none" xmlns="http://www.w3.org/2000/svg">
<path d="M6.62773 17.125C14.173 17.125 18.3012 10.8723 18.3012 5.45155C18.3012 5.27577 18.2973 5.09608 18.2895 4.9203C19.0925 4.33955 19.7855 3.62021 20.3359 2.79608C19.588 3.12883 18.794 3.34615 17.9809 3.44061C18.837 2.92742 19.478 2.12123 19.7852 1.17147C18.9797 1.6488 18.0989 1.98551 17.1805 2.16718C16.5616 1.50963 15.7434 1.07426 14.8523 0.928376C13.9613 0.782488 13.0469 0.934209 12.2507 1.36008C11.4545 1.78595 10.8208 2.46225 10.4475 3.28443C10.0742 4.1066 9.98213 5.02885 10.1855 5.90858C8.55468 5.82674 6.95922 5.40309 5.50259 4.66508C4.04596 3.92708 2.76068 2.8912 1.73008 1.6246C1.20627 2.5277 1.04598 3.59637 1.2818 4.61341C1.51761 5.63045 2.13182 6.51954 2.99961 7.09999C2.34813 7.0793 1.71092 6.9039 1.14062 6.58827V6.63905C1.14004 7.58679 1.46769 8.50549 2.06786 9.23897C2.66804 9.97246 3.50371 10.4755 4.43281 10.6625C3.82932 10.8276 3.19592 10.8517 2.58164 10.7328C2.84382 11.5479 3.35391 12.2607 4.04075 12.7719C4.72758 13.2831 5.55687 13.5672 6.41289 13.5844C4.95962 14.7259 3.16442 15.3451 1.31641 15.3422C0.988677 15.3417 0.66127 15.3216 0.335938 15.282C2.21332 16.4865 4.39721 17.1262 6.62773 17.125Z" fill="#333333"/>
</svg>
